<svg width="44" height="96" viewBox="0 0 44 96" fill="none" xmlns="http://www.w3.org/2000/svg">
<line x1="1" y1="18" x2="1" y2="65" stroke="white" stroke-width="2"/>
<path d="M14.52 30.1647C14.52 27.2847 15.4733 25.0114 17.38 23.3447C19.2867 21.678 21.8933 20.8447 25.2 20.8447C27.3867 20.8447 29.28 21.2247 30.88 21.9847C32.4933 22.7447 33.7333 23.818 34.6 25.2047C35.48 26.6047 35.92 28.258 35.92 30.1647C35.92 32.058 35.4867 33.698 34.62 35.0847C33.7533 36.4714 32.52 37.538 30.92 38.2847C29.32 39.0314 27.42 39.4047 25.22 39.4047C23.0067 39.4047 21.1 39.0314 19.5 38.2847C17.9 37.5514 16.6667 36.4914 15.8 35.1047C14.9467 33.718 14.52 32.0714 14.52 30.1647ZM19.3 30.1647C19.3 31.5114 19.82 32.558 20.86 33.3047C21.9 34.0514 23.3533 34.4247 25.22 34.4247C27.0867 34.4247 28.54 34.0447 29.58 33.2847C30.6333 32.538 31.16 31.498 31.16 30.1647C31.16 28.818 30.6333 27.7647 29.58 27.0047C28.5267 26.2447 27.0667 25.8647 25.2 25.8647C23.36 25.8647 21.9133 26.2447 20.86 27.0047C19.82 27.7647 19.3 28.818 19.3 30.1647ZM7.24 57.1409L15.36 60.2409L35.44 52.5809V57.7209L23.48 62.1809C23.2 62.3009 22.8933 62.4143 22.56 62.5209C22.2267 62.6276 21.8933 62.7276 21.56 62.8209C21.8933 62.9009 22.22 62.9943 22.54 63.1009C22.8733 63.2209 23.1867 63.3409 23.48 63.4609L35.44 67.9209V73.0609L7.24 62.3009V57.1409Z" fill="white"/>
</svg>
