<svg width="43" height="45" viewBox="0 0 43 45" fill="none" xmlns="http://www.w3.org/2000/svg">
<path fill-rule="evenodd" clip-rule="evenodd" d="M1.438 30.438C1.29831 30.5773 1.18748 30.7429 1.11186 30.9251C1.03624 31.1073 0.997316 31.3027 0.997316 31.5C0.997316 31.6973 1.03624 31.8927 1.11186 32.0749C1.18748 32.2571 1.29831 32.4227 1.438 32.562L13.438 44.562C13.7197 44.8437 14.1017 45.0019 14.5 45.0019C14.8983 45.0019 15.2803 44.8437 15.562 44.562C15.8437 44.2803 16.0019 43.8983 16.0019 43.5C16.0019 43.1017 15.8437 42.7197 15.562 42.438L6.121 33L35.5 33C37.4891 33 39.3968 32.2098 40.8033 30.8033C42.2098 29.3968 43 27.4891 43 25.5L43 1.49999C43 1.10217 42.842 0.720638 42.5607 0.439333C42.2794 0.158029 41.8978 -5.48378e-06 41.5 -5.48378e-06C41.1022 -5.48378e-06 40.7206 0.158029 40.4393 0.439333C40.158 0.720638 40 1.10217 40 1.49999L40 25.5C40 26.6935 39.5259 27.8381 38.682 28.682C37.8381 29.5259 36.6935 30 35.5 30L6.121 30L15.562 20.562C15.8437 20.2803 16.0019 19.8983 16.0019 19.5C16.0019 19.1017 15.8437 18.7197 15.562 18.438C15.2803 18.1563 14.8983 17.9981 14.5 17.9981C14.1017 17.9981 13.7197 18.1563 13.438 18.438L1.438 30.438V30.438Z" fill="white"/>
</svg>
